<svg width="46" height="76" viewBox="0 0 46 76" fill="none" xmlns="http://www.w3.org/2000/svg">
<g filter="url(#filter0_ii_3_4)">
<path d="M1.95939 36.6728C14.5424 65.8138 12.583 69.0793 12.583 69.0793C12.583 69.0793 13.155 74.1163 26.31 75.6773C40.6089 77.3739 42.3247 71.8285 42.3247 71.8285C42.3247 71.8285 46 62.6687 46 47.1196C46 17.4287 32.6748 2.99112 18.5461 2.03351C17.1275 1.93736 15.7773 2.05022 14.5 2.34469C14.5 2.34469 12.5 0.101076 10.5 0.999993C8.63304 1.83911 9.68382 4.49999 9.68382 4.49999C0.919437 10.5649 -2.51054 26.3209 1.95939 36.6728Z" fill="#FF0FD3"/>
</g>
<defs>
<filter id="filter0_ii_3_4" x="-10" y="0.787476" width="66" height="75.2125" filterUnits="userSpaceOnUse" color-interpolation-filters="sRGB">
<feFlood flood-opacity="0" result="BackgroundImageFix"/>
<feBlend mode="normal" in="SourceGraphic" in2="BackgroundImageFix" result="shape"/>
<feColorMatrix in="SourceAlpha" type="matrix" values="0 0 0 0 0 0 0 0 0 0 0 0 0 0 0 0 0 0 127 0" result="hardAlpha"/>
<feOffset dx="-10"/>
<feGaussianBlur stdDeviation="8"/>
<feComposite in2="hardAlpha" operator="arithmetic" k2="-1" k3="1"/>
<feColorMatrix type="matrix" values="0 0 0 0 0 0 0 0 0 0 0 0 0 0 0 0 0 0 0.25 0"/>
<feBlend mode="normal" in2="shape" result="effect1_innerShadow_3_4"/>
<feColorMatrix in="SourceAlpha" type="matrix" values="0 0 0 0 0 0 0 0 0 0 0 0 0 0 0 0 0 0 127 0" result="hardAlpha"/>
<feOffset dx="10"/>
<feGaussianBlur stdDeviation="8"/>
<feComposite in2="hardAlpha" operator="arithmetic" k2="-1" k3="1"/>
<feColorMatrix type="matrix" values="0 0 0 0 1 0 0 0 0 1 0 0 0 0 1 0 0 0 0.25 0"/>
<feBlend mode="normal" in2="effect1_innerShadow_3_4" result="effect2_innerShadow_3_4"/>
</filter>
</defs>
</svg>
